<mxfile host="app.diagrams.net" agent="Mozilla/5.0 (Macintosh; Intel Mac OS X 10_15_7) AppleWebKit/605.1.15 (KHTML, like Gecko) Version/18.0.1 Safari/605.1.15" version="24.7.17">
  <diagram name="Page-1" id="DL59L9DFtENRec75nvkA">
    <mxGraphModel dx="1359" dy="751" grid="1" gridSize="10" guides="1" tooltips="1" connect="1" arrows="1" fold="1" page="1" pageScale="1" pageWidth="850" pageHeight="1100" math="0" shadow="0">
      <root>
        <mxCell id="0" />
        <mxCell id="1" parent="0" />
        <mxCell id="sfXxPcUd2NQQhnp4hSrS-39" value="" style="rounded=0;whiteSpace=wrap;html=1;fillColor=#dae8fc;strokeColor=#6c8ebf;" vertex="1" parent="1">
          <mxGeometry x="60" y="470" width="490" height="420" as="geometry" />
        </mxCell>
        <mxCell id="sfXxPcUd2NQQhnp4hSrS-38" value="" style="rounded=0;whiteSpace=wrap;html=1;dashed=1;" vertex="1" parent="1">
          <mxGeometry x="79" y="490" width="281" height="380" as="geometry" />
        </mxCell>
        <mxCell id="sfXxPcUd2NQQhnp4hSrS-49" style="edgeStyle=orthogonalEdgeStyle;rounded=0;orthogonalLoop=1;jettySize=auto;html=1;" edge="1" parent="1">
          <mxGeometry relative="1" as="geometry">
            <mxPoint x="291.66999999999985" y="683" as="sourcePoint" />
            <mxPoint x="291.66999999999985" y="737" as="targetPoint" />
          </mxGeometry>
        </mxCell>
        <mxCell id="sfXxPcUd2NQQhnp4hSrS-8" value="&lt;font style=&quot;font-size: 16px;&quot;&gt;yarowa-app&lt;/font&gt;&lt;div&gt;&lt;font style=&quot;font-size: 16px;&quot;&gt;ingress&lt;/font&gt;&lt;/div&gt;" style="aspect=fixed;sketch=0;html=1;dashed=0;whitespace=wrap;verticalLabelPosition=bottom;verticalAlign=top;fillColor=#2875E2;strokeColor=#ffffff;points=[[0.005,0.63,0],[0.1,0.2,0],[0.9,0.2,0],[0.5,0,0],[0.995,0.63,0],[0.72,0.99,0],[0.5,1,0],[0.28,0.99,0]];shape=mxgraph.kubernetes.icon2;kubernetesLabel=1;prIcon=ing" vertex="1" parent="1">
          <mxGeometry x="250.00000000000003" y="560" width="83.34" height="80" as="geometry" />
        </mxCell>
        <mxCell id="sfXxPcUd2NQQhnp4hSrS-7" value="&lt;font style=&quot;font-size: 16px;&quot;&gt;yarowa-app&lt;/font&gt;&lt;div&gt;&lt;font style=&quot;font-size: 16px;&quot;&gt;pod&lt;/font&gt;&lt;/div&gt;" style="aspect=fixed;sketch=0;html=1;dashed=0;whitespace=wrap;verticalLabelPosition=bottom;verticalAlign=top;fillColor=#2875E2;strokeColor=#ffffff;points=[[0.005,0.63,0],[0.1,0.2,0],[0.9,0.2,0],[0.5,0,0],[0.995,0.63,0],[0.72,0.99,0],[0.5,1,0],[0.28,0.99,0]];shape=mxgraph.kubernetes.icon2;kubernetesLabel=1;prIcon=pod" vertex="1" parent="1">
          <mxGeometry x="100" y="736" width="83.34" height="80" as="geometry" />
        </mxCell>
        <mxCell id="sfXxPcUd2NQQhnp4hSrS-50" style="edgeStyle=orthogonalEdgeStyle;rounded=0;orthogonalLoop=1;jettySize=auto;html=1;" edge="1" parent="1" source="sfXxPcUd2NQQhnp4hSrS-9" target="sfXxPcUd2NQQhnp4hSrS-7">
          <mxGeometry relative="1" as="geometry" />
        </mxCell>
        <mxCell id="sfXxPcUd2NQQhnp4hSrS-9" value="&lt;font style=&quot;font-size: 16px;&quot;&gt;yarowa-app&amp;nbsp;&lt;/font&gt;&lt;div&gt;&lt;font style=&quot;font-size: 16px;&quot;&gt;service&lt;/font&gt;&lt;/div&gt;" style="aspect=fixed;sketch=0;html=1;dashed=0;whitespace=wrap;verticalLabelPosition=bottom;verticalAlign=top;fillColor=#2875E2;strokeColor=#ffffff;points=[[0.005,0.63,0],[0.1,0.2,0],[0.9,0.2,0],[0.5,0,0],[0.995,0.63,0],[0.72,0.99,0],[0.5,1,0],[0.28,0.99,0]];shape=mxgraph.kubernetes.icon2;kubernetesLabel=1;prIcon=svc" vertex="1" parent="1">
          <mxGeometry x="250" y="736" width="83.34" height="80" as="geometry" />
        </mxCell>
        <mxCell id="sfXxPcUd2NQQhnp4hSrS-54" style="edgeStyle=orthogonalEdgeStyle;rounded=0;orthogonalLoop=1;jettySize=auto;html=1;" edge="1" parent="1" source="sfXxPcUd2NQQhnp4hSrS-22">
          <mxGeometry relative="1" as="geometry">
            <mxPoint x="728.5" y="710" as="targetPoint" />
          </mxGeometry>
        </mxCell>
        <mxCell id="sfXxPcUd2NQQhnp4hSrS-22" value="&lt;font style=&quot;font-size: 16px;&quot;&gt;User&lt;/font&gt;" style="sketch=0;outlineConnect=0;fontColor=#232F3E;gradientColor=none;fillColor=#232F3D;strokeColor=none;dashed=0;verticalLabelPosition=bottom;verticalAlign=top;align=center;html=1;fontSize=12;fontStyle=0;aspect=fixed;pointerEvents=1;shape=mxgraph.aws4.user;" vertex="1" parent="1">
          <mxGeometry x="689.5" y="792" width="78" height="78" as="geometry" />
        </mxCell>
        <mxCell id="sfXxPcUd2NQQhnp4hSrS-41" value="" style="group" vertex="1" connectable="0" parent="1">
          <mxGeometry x="37" y="424" width="243.34000000000003" height="76" as="geometry" />
        </mxCell>
        <mxCell id="sfXxPcUd2NQQhnp4hSrS-4" value="" style="shape=image;verticalLabelPosition=bottom;labelBackgroundColor=default;verticalAlign=top;aspect=fixed;imageAspect=0;image=https://download.logo.wine/logo/Kubernetes/Kubernetes-Logo.wine.png;" vertex="1" parent="sfXxPcUd2NQQhnp4hSrS-41">
          <mxGeometry width="105" height="70" as="geometry" />
        </mxCell>
        <mxCell id="sfXxPcUd2NQQhnp4hSrS-40" value="&lt;font color=&quot;#ffffff&quot; style=&quot;font-size: 16px;&quot;&gt;Kubernetes cluster&lt;/font&gt;" style="rounded=1;whiteSpace=wrap;html=1;fillColor=#2875E2;strokeColor=none;" vertex="1" parent="sfXxPcUd2NQQhnp4hSrS-41">
          <mxGeometry x="83.34" y="16" width="160" height="40" as="geometry" />
        </mxCell>
        <mxCell id="sfXxPcUd2NQQhnp4hSrS-17" value="" style="group" vertex="1" connectable="0" parent="1">
          <mxGeometry x="410" y="520" width="118" height="350" as="geometry" />
        </mxCell>
        <mxCell id="sfXxPcUd2NQQhnp4hSrS-44" value="" style="rounded=0;whiteSpace=wrap;html=1;dashed=1;" vertex="1" parent="sfXxPcUd2NQQhnp4hSrS-17">
          <mxGeometry x="-26" y="-30" width="144" height="380" as="geometry" />
        </mxCell>
        <mxCell id="sfXxPcUd2NQQhnp4hSrS-16" value="" style="shape=image;verticalLabelPosition=bottom;labelBackgroundColor=default;verticalAlign=top;aspect=fixed;imageAspect=0;image=data:image/png,iVBORw0KGgoAAAANSUhEUgAAANMAAADvCAMAAABfYRE9AAAAwFBMVEX///8AejMhVzIAljkAkzIAjyH6/fsASBYAmDn6+/siVDIAShscVS4VeTYAcyMWUipZsXMAdy0FTSIAkSlIqWU7aEnw9/MAcBjN19Dc6uHGz8hqiHKpt62lw63E18je5eAkhEaxz7s7pVvU6tuXv6Q7jldYnG683sYrXjshnUlzq4Wk0rEAhzaQyKAAjTdKcVW3xLubrqBwuYV8v48hZjiFnYxzjntEilkAbSwpdUQ1gk9pnHdAe1R6pIhXjGlOf17XCSMvAAAKtElEQVR4nO2dfVfbOhLGHdt5KQl2HDcJKQUSTAgvy6VAKe3e3b3f/1ut7CTEtkbySJZlicNzTv/hxBz98DyTmZHsOs6n5NRLNg9/P54+XbS9EGVKnuNuHEdH4WQ4/d72YpRoNu76nucNjo9c1x0Nwx9tL6i+HuKUaM9EqPqPJ22vqZ42Xux5BaaU6tes7XXJK7nseh7F5Lph/6ntpUlq9tz1PZDJdSc3VtpqbySQiSSLR+sS+8FIMJN9tlp87XpeBROx1cQeWxWNxGZKbfWt7cXidB/TRAwmEoCnFthqcxsDRCymNK+/fml7zXwRI0E3icOU2srkIrD3wiLiMbnu0Fxb3ftw2FUyGWurhGEkDFNmq17bBGUtxuywwzCRvB6aZaveA5i/hZiIraYGdSH3MTfssEwG2Sq5rCbCMWVdiAG2mlUZSYiJ2GrUdhfSe8AR4ZlIF9KuraiOQgFTZqvWuhCckcSZiK2G7XQhWCPJMKXfVi3YqvobqRZTOjPTnNcFjCTJpLu5z8+4mmPSOTMDW/NGmLTNzESNVItJi63EjVSPqXlbJfSMq3GmZmdmPSkj1WdqcGYGz7i0MDVkK9aMSw9TEzMz9oxLFxMJQKUzM96MSx9T2twrsxV3xqWTSVlzXzHj0sqkZmZWOePSzFR/ZtZ7qZW/G2GqOTPbIGZcLTDVsJUiIzXAJDszE2zNNTMRW7miXQh+xtUWk7CtpDsKnUxCMzOZ1rwNJvzMTLWRmmRCzswkW/O2mBDnzBowUsNMVc19I0ZqnIk3M5ObcZnAxJyZNWUkLUzgObOkMSPpYUptVWruX5ozki6mNADzuWLc8E3Sw+SOwkP8PTePpIXJHbn7O3XfeODpYnLD010O14GkicntbydLz43mcM1Mo8fsNmkwkz4mt5+mifuPxZTtgYy1hJ42pixL3GpB0sY0unGcnp7Q08bkTr44PS2ZXCNT/5Ppk+mT6ZOpDpOf6iMxxV1v/PzyMva7kqMKn/yG28H2aiOYYv9h32At7i8lRkp+/JJsZx3p6RcTmLovhQ2eZCzqu/hy8X71xhdnGo1Gipm6m/JkaeMJ3Sp/nL944YsxhX338XQ6GUpgMZnie3oA2BOZxPi3pVlbV4BpNHzdDktOHofKmPyvNJLYeKmblK59jtBM4fQw/vkuDMViola0h8KGXzHysuibY5nCx/x1J31FTB6M5PRukVAxZUfnDe2N4i6F6J1iMDFCz8EPL2J69+S/IW5Nw/I0/1EsUbCYqMh5V4JL6T690/80QS6qfOE3sRslzoQccAJM33FM4Wv5wh72jyHN5Lygwk+aaUJvJE2Fgk+GyfmKyBMDaaYhfUTvFOnEGkyY5Gcbk7NARB99ldlMmORnHRMi+dnHVL0LZyFTZfKzkalX0U3ZyOQs+JayksnZcKHsZHIeeFCWMvGS3y39aTuYnEtmnrCXacZMfvYysYskO5jgqQsr+dnBdPsAQjGSnx1MX+nJbCZ45mcJkx8v6J86jORnC5N/Cz72MbOZyfMvISYnAaLPGiYvfgahgORXyTQKJ0NQffrJptM++MkJjCrI5HWB7Q4nPfIsyjS8efrx7QQS8LDWBfjBbz9eJ9CtF2UCtqUyUcmPz6Tq7XS91z49+hNm8rpw8iuNx8q7T0Wm8FHZiwZO6PgTZ/JvwfWU9ga4TCNX4UPeJ9QwXZyJmfwKvwb60DsTkAVqiNpakGBCJT8eU/hLJZLjlLeyZZhYyS+/N8BjGip+c9ZTqICJlfxyn+DeJ8Uvbis7So7Jgyu/3N4Ah2k0VYvkXPSVMPnA9pKT3xvQyfRFDVNl8gOZhrtMrphJ0X1iJr/93gDEdD7dmnmo+MUqPyaKmLwu3Pbukh/EdLb8302adlW/2Ke8LS/PxE9+IFMQrf/Jzn0oRSqHXh0mVvLLxmPQAYuzoBN13shfdULtrNcRtYFdh4mX/BhMnU50/DYdqXxb2ynVbtRh4iU/JhOhWv7nqP9L0ffuxZTuoGoxcZIf9At2TETr6WSk4L+u6Z38gs731WNiJb/nmM/U6fw7PW44BXVDl4Mn8AfDIdi812RiJb/LuIKJBODNCFYfmLFMwE9CQAqYGMlvNqhgIlr+hM/z6Z4bAZ/0wLZ3ATitxESophBV+0ys5AeIYiK2ujGSiZX8UEydYzoATWBiJT8UE2ArI5hYyQ/HRAWgGUysmR+SqdP5k6cyhMkbYGaQbKaCrUxhQiU/DhOxlbunMoUJlfy4TAdbGcOESX4VTHtbmcI0GPw1P6/NtLWVIUyDv8iC5lXJr5qJ2OrmyAimgfevdDlRVJH8MEwkACftM+2IUqi1CqZOQAexZqYs7ParuVPBBBhTK9PAKy7nynqmQ9i9r2dlN9NgUCbq8JOf+Ux5Ix0UddjJr20mYDxXOFZUMlIOip38sHmPjt9TFc8KAccb8q84oY2UW9I1i+kOyUQnGhEiNhM9Dtq8M4FGOoiZ/JYoJOBOXyh59s6LqZL03U6wkfJQcPI7n+OY6DyDfhCRz0Q9t7k/KcA0UiXUOkIyRaXonf0WQmIzlbq83U4tz0h5KKCgQLopu7wYveSP8VMJE0l9ua2HxN8aqSrs9gqW5YQsgFSE6q3TK4GZmQST53v7cdBse44XTUQUzdf5ADxfiiARqOu9p1adXcgeu1gq7ns+Yu9ls9ncj7MXs2OMVKQK7lbJjOj8ajnHeulw9fpqtVrddXJ/i9/A0FaYKX1TB5GPN1JRQTCfZ//ELyVUQariz3ABiHtvDt5IDQtlKxSTKUSpjpUwSYVdg/pzVHGvKplMI0pVEYAVTMYYqSi+rfhMZhKl4pVLPCbRbyS9+iPBZKKRimIFIJPJ3LA7iFEuMZjMDruDQFuBTOaH3UGArQCmitbcNNF5nWaywUhFlW1VZrLFSEX9LlClTHGOyKqwyykfgOEXx7HUSEUdbJW9wHw35bLPSEXtAzB7xOVBpjU3UVuqbO806VpspKJIAI7C7IGxS9/ysDvo+Ge4PROdYKe+NijaPde3+jhQh7n2tdS4ykDlt8k/CFRx8+vuI4Rfee/hvGP7rQo69E7wVXmUa5UCYM803b+4E57Vm6Jofsfa8F+srbRVNF/zDqWtLLRV0OEdnyHqXcntrbQmhpFKtrq2yFbR/Br33oZkaYut5mvGC7wBnUU2BGClkYrqmZ/XSf4WfSpxYbat0EYqSvQEgE7NqRMYWJma14PgTJLIMbRckjBSUaRcMozqcMhFXmaVS8GxrJGKMqcLQRVCOBlSLnE6ChkZUC5VdBQyartcEiyEcGq1XAr4z03Iq7VySbIQwqmdckmko5CR/nIpiBowUlGay6UAOgStXhrLpUaNVJSuckm+o5CRjnIpiGp0FDKa/d1wANbuKGTUaLkUqegoZLRqrFyiH47QpobKJYUdhYwaKJcUdxQyOldsq/lbO0Yq6kxhXg+OGy+EcFJWLjXWUcho8aaAygAjFVV/j1t9a15f9boQDR2FjGqUSy1/I/GUyO1xa+woZCRTLs2XzbbmtUXKJTEq7R2FjITKpVY6Chmhy6XWOgoZ4colva15bSHKpVqbfe2oYrpkjZGK4gxtIzM6ChmxyiXo+KA1Am1lcCGEE1UuGddRyGgVBFGOyMCOQkZnyznhiqIgmL9ZbKSSkrO767fru9XHuEdt6P/HX7M3+l6ASwAAAABJRU5ErkJggg==;" vertex="1" parent="sfXxPcUd2NQQhnp4hSrS-17">
          <mxGeometry x="48.89406286379511" y="9" width="40.51357894736842" height="45.89473684210526" as="geometry" />
        </mxCell>
        <mxCell id="sfXxPcUd2NQQhnp4hSrS-10" value="&lt;font style=&quot;font-size: 16px;&quot;&gt;ingress-nginx&lt;/font&gt;&lt;div&gt;&lt;font style=&quot;font-size: 16px;&quot;&gt;controller&lt;/font&gt;&lt;/div&gt;" style="aspect=fixed;sketch=0;html=1;dashed=0;whitespace=wrap;verticalLabelPosition=bottom;verticalAlign=top;fillColor=#2875E2;strokeColor=#ffffff;points=[[0.005,0.63,0],[0.1,0.2,0],[0.9,0.2,0],[0.5,0,0],[0.995,0.63,0],[0.72,0.99,0],[0.5,1,0],[0.28,0.99,0]];shape=mxgraph.kubernetes.icon2;kubernetesLabel=1;prIcon=pod" vertex="1" parent="sfXxPcUd2NQQhnp4hSrS-17">
          <mxGeometry y="37.684210526315795" width="83.6661052631579" height="80.3157894736842" as="geometry" />
        </mxCell>
        <mxCell id="sfXxPcUd2NQQhnp4hSrS-45" value="&lt;span style=&quot;caret-color: rgba(0, 0, 0, 0); color: rgba(0, 0, 0, 0); font-family: monospace; font-size: 0px; text-align: start; white-space: nowrap;&quot;&gt;%3CmxGraphModel%3E%3Croot%3E%3CmxCell%20id%3D%220%22%2F%3E%3CmxCell%20id%3D%221%22%20parent%3D%220%22%2F%3E%3CmxCell%20id%3D%222%22%20value%3D%22yarowa-demo%20namespace%22%20style%3D%22text%3Bhtml%3D1%3Balign%3Dcenter%3BverticalAlign%3Dmiddle%3BwhiteSpace%3Dwrap%3Brounded%3D0%3B%22%20vertex%3D%221%22%20parent%3D%221%22%3E%3CmxGeometry%20x%3D%2279.67%22%20y%3D%22501%22%20width%3D%22144%22%20height%3D%2220%22%20as%3D%22geometry%22%2F%3E%3C%2FmxCell%3E%3C%2Froot%3E%3C%2FmxGraphModel%3Ei&lt;/span&gt;" style="text;html=1;align=center;verticalAlign=middle;whiteSpace=wrap;rounded=0;" vertex="1" parent="1">
          <mxGeometry x="310" y="390" width="144" height="20" as="geometry" />
        </mxCell>
        <mxCell id="sfXxPcUd2NQQhnp4hSrS-43" value="&lt;font style=&quot;font-size: 10px;&quot;&gt;yarowa-demo namespace&lt;/font&gt;" style="text;html=1;align=center;verticalAlign=middle;whiteSpace=wrap;rounded=0;" vertex="1" parent="1">
          <mxGeometry x="159.16" y="490" width="120.67" height="20" as="geometry" />
        </mxCell>
        <mxCell id="sfXxPcUd2NQQhnp4hSrS-46" value="&lt;font style=&quot;font-size: 10px;&quot;&gt;ingress-nginx namespace&lt;/font&gt;" style="text;html=1;align=center;verticalAlign=middle;whiteSpace=wrap;rounded=0;" vertex="1" parent="1">
          <mxGeometry x="386" y="490" width="140" height="20" as="geometry" />
        </mxCell>
        <mxCell id="sfXxPcUd2NQQhnp4hSrS-47" style="edgeStyle=orthogonalEdgeStyle;rounded=0;orthogonalLoop=1;jettySize=auto;html=1;entryX=0.925;entryY=0.472;entryDx=0;entryDy=0;entryPerimeter=0;" edge="1" parent="1" source="sfXxPcUd2NQQhnp4hSrS-10" target="sfXxPcUd2NQQhnp4hSrS-8">
          <mxGeometry relative="1" as="geometry" />
        </mxCell>
        <mxCell id="sfXxPcUd2NQQhnp4hSrS-48" style="edgeStyle=orthogonalEdgeStyle;rounded=0;orthogonalLoop=1;jettySize=auto;html=1;" edge="1" parent="1" target="sfXxPcUd2NQQhnp4hSrS-10">
          <mxGeometry relative="1" as="geometry">
            <mxPoint x="580" y="598.0000000000002" as="sourcePoint" />
          </mxGeometry>
        </mxCell>
        <mxCell id="sfXxPcUd2NQQhnp4hSrS-53" value="" style="group" vertex="1" connectable="0" parent="1">
          <mxGeometry x="580" y="470" width="297" height="237.60000000000002" as="geometry" />
        </mxCell>
        <mxCell id="sfXxPcUd2NQQhnp4hSrS-52" value="" style="image;aspect=fixed;html=1;points=[];align=center;fontSize=12;image=img/lib/azure2/general/Browser.svg;" vertex="1" parent="sfXxPcUd2NQQhnp4hSrS-53">
          <mxGeometry width="297" height="237.6" as="geometry" />
        </mxCell>
        <mxCell id="sfXxPcUd2NQQhnp4hSrS-20" value="&lt;font style=&quot;font-size: 13px;&quot; color=&quot;#000000&quot;&gt;http://casestudy.local.yarowa.io/&lt;/font&gt;" style="strokeWidth=1;shadow=0;dashed=0;align=center;html=1;shape=mxgraph.mockup.containers.anchor;rSize=0;fontSize=17;fontColor=#666666;align=left;" vertex="1" parent="sfXxPcUd2NQQhnp4hSrS-53">
          <mxGeometry x="47" y="16" width="236" height="26" as="geometry" />
        </mxCell>
        <mxCell id="sfXxPcUd2NQQhnp4hSrS-55" value="&lt;font color=&quot;#ffffff&quot; style=&quot;font-size: 16px;&quot;&gt;Browser&lt;/font&gt;" style="text;html=1;align=center;verticalAlign=middle;whiteSpace=wrap;rounded=0;" vertex="1" parent="sfXxPcUd2NQQhnp4hSrS-53">
          <mxGeometry x="118.5" y="120" width="60" height="30" as="geometry" />
        </mxCell>
      </root>
    </mxGraphModel>
  </diagram>
</mxfile>
